<svg xmlns="http://www.w3.org/2000/svg" viewBox="0 0 130.51 130.51"><defs><style>.cls-1{fill:#211a10;fill-rule:evenodd;}.cls-2{fill:#f3dcc2;}</style></defs><g id="Layer_2" data-name="Layer 2"><g id="Layer_2-2" data-name="Layer 2"><path class="cls-1" d="M0,65.26,65.26,0l65.25,65.26L65.26,130.51Z"/><path class="cls-2" d="M71.38,53.52v3.6a4.29,4.29,0,0,1-1.66,3.6A8.41,8.41,0,0,1,64.54,62a38.79,38.79,0,0,0-4.47.28,15.69,15.69,0,0,0-4.57,1.26,9.5,9.5,0,0,0-3.56,2.81,7.68,7.68,0,0,0-1.44,4.86V88.3H79.3V80.38H59.14V74.11A3,3,0,0,1,61,71a18.42,18.42,0,0,1,6-.72,24.36,24.36,0,0,0,4.28-.4,12.77,12.77,0,0,0,4.21-1.51,9.21,9.21,0,0,0,3.21-3.06,9,9,0,0,0,1.26-5V52.08a8.54,8.54,0,0,0-1.3-4.93,9.77,9.77,0,0,0-3.24-3,13,13,0,0,0-4.25-1.51,25.85,25.85,0,0,0-4.32-.39c-1.53,0-3.2,0-5,.1s-3.49.16-5.08.26q-2.8.21-5.61.36v7.41l.5.51c1.49-.1,3-.22,4.46-.36,1.25-.1,2.58-.18,4-.26s2.7-.1,3.85-.1,2,0,2.85.1a9.49,9.49,0,0,1,2.34.47,3.75,3.75,0,0,1,1.58,1A2.58,2.58,0,0,1,71.38,53.52Z"/></g></g></svg>