<svg xmlns="http://www.w3.org/2000/svg" viewBox="0 0 130.51 130.51"><defs><style>.cls-1{fill:#211a10;fill-rule:evenodd;}.cls-2{fill:#f3dcc2;}</style></defs><g id="Layer_2" data-name="Layer 2"><g id="Layer_2-2" data-name="Layer 2"><path class="cls-1" d="M0,65.26,65.26,0l65.25,65.26L65.26,130.51Z"/><path class="cls-2" d="M52.66,60.58V68.5H65.4a15.72,15.72,0,0,1,2.09.14,4.28,4.28,0,0,1,1.8.69,3.66,3.66,0,0,1,1.26,1.54A6.68,6.68,0,0,1,71,73.61V75.7a4.34,4.34,0,0,1-.72,2.63,4.87,4.87,0,0,1-1.91,1.51,9.21,9.21,0,0,1-2.77.72,30.19,30.19,0,0,1-3.39.18c-1.15,0-2.35,0-3.6-.11s-2.42-.16-3.53-.25-2.49-.22-3.74-.36l-.5.5v7.42q2.45.21,4.89.36c1.39.09,2.92.18,4.57.25s3.26.11,4.79.11c1.35,0,2.87-.09,4.58-.25a15.46,15.46,0,0,0,4.75-1.23,9.84,9.84,0,0,0,3.71-2.84,8.1,8.1,0,0,0,1.51-5.19V72.24a8.46,8.46,0,0,0-1.3-5,7.16,7.16,0,0,0-3.67-2.59,9.73,9.73,0,0,0,3.53-2.88,7.82,7.82,0,0,0,1.44-4.9V51.36a8.41,8.41,0,0,0-1.41-5.18,9.13,9.13,0,0,0-3.45-2.85,13.49,13.49,0,0,0-4.5-1.22,43.48,43.48,0,0,0-4.47-.26c-1.53,0-3.15,0-4.86.11s-3.32.16-4.86.26c-1.77.14-3.53.26-5.25.36V50l.5.51c1.39-.1,2.76-.22,4.1-.36,1.16-.1,2.4-.18,3.75-.26s2.59-.1,3.74-.1a27.36,27.36,0,0,1,3.28.18,7.86,7.86,0,0,1,2.56.72,3.79,3.79,0,0,1,1.65,1.54,5.16,5.16,0,0,1,.58,2.6v.57a6.65,6.65,0,0,1-.47,2.74,3.86,3.86,0,0,1-1.22,1.55,4.3,4.3,0,0,1-1.73.72,11.25,11.25,0,0,1-2,.18Z"/></g></g></svg>