<svg xmlns="http://www.w3.org/2000/svg" viewBox="0 0 94.47 94.47"><defs><style>.cls-1{fill:#211a10;fill-rule:evenodd;}.cls-2{fill:#f3dcc2;}</style></defs><g id="Layer_2" data-name="Layer 2"><g id="Layer_2-2" data-name="Layer 2"><path class="cls-1" d="M13.61,0,94.47,13.61,80.86,94.47,0,80.86Z"/><path class="cls-2" d="M61.83,58.85a13.07,13.07,0,0,0-.35-6.2,6.78,6.78,0,0,0-3.74-4.2A7.65,7.65,0,0,0,62,45.94a10.7,10.7,0,0,0,2.2-5.25l.31-1.85a12.72,12.72,0,0,0-.1-5.52,8.9,8.9,0,0,0-2-3.74,9.18,9.18,0,0,0-3.3-2.27,19,19,0,0,0-3.94-1.14l-18-3L29.64,67.89,48.32,71a18.37,18.37,0,0,0,4.08.21,9.19,9.19,0,0,0,3.87-1.06,9,9,0,0,0,3.11-2.87,12.77,12.77,0,0,0,1.9-5.2Zm-13,4.24-9.37-1.58,1.91-11.36,9.37,1.57c1.37.24,2.23.74,2.56,1.53a5.1,5.1,0,0,1,.2,2.88l-.74,4.41a3.7,3.7,0,0,1-1,2.05C51.19,63.15,50.22,63.32,48.85,63.09Zm2.66-19.27L42.7,42.34l1.68-9.94L53,33.85a4.54,4.54,0,0,1,2,.7,2.53,2.53,0,0,1,.85,1.05A2.7,2.7,0,0,1,56,36.87c0,.45-.11.87-.17,1.25l-.43,2.56a8.36,8.36,0,0,1-.33,1.26A3.1,3.1,0,0,1,54.42,43a2.76,2.76,0,0,1-1.15.72A3.47,3.47,0,0,1,51.51,43.82Z"/></g></g></svg>