<svg xmlns="http://www.w3.org/2000/svg" viewBox="0 0 91.02 91.02"><defs><style>.cls-1{fill:#211a10;fill-rule:evenodd;}.cls-2{fill:#f3dcc2;}</style></defs><g id="Layer_2" data-name="Layer 2"><g id="Layer_2-2" data-name="Layer 2"><path class="cls-1" d="M0,9.58,81.44,0,91,81.44,9.58,91Z"/><path class="cls-2" d="M56.83,29.57l.44-.56-.86-7.37c-1.73.11-3.48.19-5.26.26-1.54.08-3.17.19-4.9.32s-3.32.28-4.8.46a28,28,0,0,0-4.32.87,13.54,13.54,0,0,0-4.06,1.85,8.59,8.59,0,0,0-2.85,3.24,8.71,8.71,0,0,0-.68,5l3.25,27.6A8.67,8.67,0,0,0,34.61,66a8.56,8.56,0,0,0,3.52,2.48,13.76,13.76,0,0,0,4.38.87,30.07,30.07,0,0,0,4.41-.16c1.47-.17,3.07-.4,4.78-.67s3.31-.55,4.83-.82q2.63-.47,5.18-1l-.87-7.37-.56-.44c-1.36.3-2.71.58-4,.83-1.14.23-2.38.47-3.73.7s-2.57.41-3.67.54a25.08,25.08,0,0,1-3.17.19,5.19,5.19,0,0,1-2.38-.55A4,4,0,0,1,41.69,59a8.38,8.38,0,0,1-.82-3l-2.24-19a8.44,8.44,0,0,1,.1-3.13,3.91,3.91,0,0,1,1.19-1.95,5,5,0,0,1,2.19-1.09,23.58,23.58,0,0,1,3.13-.55q1.63-.2,3.69-.33c1.37-.09,2.63-.15,3.78-.19C54.07,29.68,55.44,29.63,56.83,29.57Z"/></g></g></svg>