<svg xmlns="http://www.w3.org/2000/svg" viewBox="0 0 9.33 9.33"><defs><style>.cls-1{fill:#ceb162;}</style></defs><g id="Layer_2" data-name="Layer 2"><g id="Layer_2-2" data-name="Layer 2"><line class="cls-1" x2="9.33" y2="9.33"/><path class="cls-1" d="M0,0A16.82,16.82,0,0,1,1.52.81L2.69,2,5,4.31,7.35,6.64,8.52,7.81c.28.5.56,1,.81,1.52-.53-.25-1-.53-1.52-.81L6.64,7.35,4.31,5,2,2.69.81,1.52A16.82,16.82,0,0,1,0,0Z"/><line class="cls-1" x1="9.33" y2="9.33"/><path class="cls-1" d="M9.33,0a16.82,16.82,0,0,1-.81,1.52L7.35,2.69,5,5,2.69,7.35,1.52,8.52C1,8.8.53,9.08,0,9.33c.25-.53.53-1,.81-1.52L2,6.64,4.31,4.31,6.64,2,7.81.81A16.82,16.82,0,0,1,9.33,0Z"/></g></g></svg>