<svg xmlns="http://www.w3.org/2000/svg" viewBox="0 0 15.52 14.35"><defs><style>.cls-1{fill:#ffb125;fill-rule:evenodd;}</style></defs><g id="Layer_2" data-name="Layer 2"><g id="Layer_2-2" data-name="Layer 2"><path class="cls-1" d="M4.47,7.21c.13-.33.22-.61.34-.89C5.3,5.16,5.8,4,6.28,2.83a1.06,1.06,0,0,1,.59-.64c1-.41,2-.84,3-1.26a1.56,1.56,0,0,1,.38-.08c.4,1.49,1.61,2.33,2.61,3.32a10.64,10.64,0,0,0,1.56,1L15.52,6c-.48.67-.93,1.3-1.39,1.92a.93.93,0,0,1-.33.25,11.45,11.45,0,0,0-2.88,2.21,11.34,11.34,0,0,0-1,1.27L7.75,14.35c-.48-.62-.91-1.13-1.28-1.68a6,6,0,0,0-1.94-1.89A23.54,23.54,0,0,1,1.11,8L0,7a3.44,3.44,0,0,1,.26-.36A16.81,16.81,0,0,0,3,3.09a5.61,5.61,0,0,1,1.8-1.92C5.42.79,6,.36,6.63,0A25.08,25.08,0,0,0,4.34,3.56,38,38,0,0,0,2.61,7.48l1.45.94c.81.52,1.6,1.06,2.41,1.56a2.17,2.17,0,0,1,.9,1.13c.08.21.2.41.35.72.39-.42.75-.77,1.07-1.15C9.56,9.77,10.27,8.8,11.11,8A14.39,14.39,0,0,0,12.9,5.61a3.15,3.15,0,0,0-.68-.35A6,6,0,0,1,8.93,3a2.27,2.27,0,0,0-.27-.26,5.1,5.1,0,0,0-2,2.7c-.52,1.82-.69,1.28.75,2.34.22.17.46.32.75.53L9.66,6.65c-.5-.31-.75-1-1.58-.61l.3-1,2.31,1.21A8.3,8.3,0,0,1,8,9.41c-.56-.4-1.1-.84-1.69-1.2S5.12,7.55,4.47,7.21Z"/></g></g></svg>