<svg xmlns="http://www.w3.org/2000/svg" viewBox="0 0 14.88 22.54"><defs><style>.cls-1{fill:#00b4ff;fill-rule:evenodd;}</style></defs><g id="Layer_2" data-name="Layer 2"><g id="Layer_2-2" data-name="Layer 2"><path class="cls-1" d="M7.46,22.54A16.55,16.55,0,0,0,6.4,21a6.27,6.27,0,0,0-2.59-1.76A8.49,8.49,0,0,1,1.2,17.6a4.15,4.15,0,0,1-1-4.14A4.35,4.35,0,0,1,.5,13c.13.31.22.54.33.77a1.18,1.18,0,0,0,1.36.73A1.22,1.22,0,0,0,3,13.14a2.17,2.17,0,0,0-.91-1.44c-.24-.19-.48-.37-.71-.57A2,2,0,0,1,.84,9,4.34,4.34,0,0,1,2.09,7C2.69,6.49,3.33,6,4,5.47a6.55,6.55,0,0,0,2.4-3c.22-.66.36-1.35.54-2L7.08,0a4.92,4.92,0,0,1,.66,2.05,5.24,5.24,0,0,1-.57,3c-.33.7-.74,1.36-1.13,2a5.26,5.26,0,0,0-.82,3.21A3.53,3.53,0,0,0,7.5,13.44a2.55,2.55,0,0,0,3.14-1,2.33,2.33,0,0,0,0-2.59A8.33,8.33,0,0,0,9.69,8.7a3.48,3.48,0,0,1-.33-4.44,5.08,5.08,0,0,1,.5-.54c.08.09.14.13.14.16a2.73,2.73,0,0,0,1.34,2.53,21.45,21.45,0,0,1,1.78,1.36,5.63,5.63,0,0,1,1.09,6.76,11.67,11.67,0,0,1-2.58,3.11,20.44,20.44,0,0,0-3.36,3.47C8,21.55,7.75,22,7.46,22.54Z"/></g></g></svg>