<svg xmlns="http://www.w3.org/2000/svg" viewBox="0 0 94.47 94.47"><defs><style>.cls-1{fill:#211a10;fill-rule:evenodd;}.cls-2{fill:#f3dcc2;}</style></defs><g id="Layer_2" data-name="Layer 2"><g id="Layer_2-2" data-name="Layer 2"><path class="cls-1" d="M13.61,0,94.47,13.61,80.86,94.47,0,80.86Z"/><path class="cls-2" d="M61.24,60.93,64.7,40.34a14.76,14.76,0,0,0,0-6,9.5,9.5,0,0,0-2.11-4.16,10.75,10.75,0,0,0-3.75-2.67A19.7,19.7,0,0,0,54,26.12l-17-2.87L29.38,68l17,2.87a19.85,19.85,0,0,0,5.07.23,10.74,10.74,0,0,0,4.42-1.3,9.31,9.31,0,0,0,3.36-3.23A14.92,14.92,0,0,0,61.24,60.93Zm-5.3-20.6L53,58.08a11.74,11.74,0,0,1-.53,2.06,4,4,0,0,1-1.08,1.68,4.48,4.48,0,0,1-2,1,7.64,7.64,0,0,1-3.06,0l-7.1-1.19,4.9-29.12,7.1,1.2a7.73,7.73,0,0,1,2.9,1,4.35,4.35,0,0,1,1.52,1.57,4.1,4.1,0,0,1,.48,1.94A12.76,12.76,0,0,1,55.94,40.33Z"/></g></g></svg>