<svg xmlns="http://www.w3.org/2000/svg" viewBox="0 0 1070.01 1186"><defs><style>.cls-1{fill:#ceb162;}</style></defs><g id="Layer_2" data-name="Layer 2"><g id="Layer_2-2" data-name="Layer 2"><path class="cls-1" d="M983.19,4.94V.59H66.07L.61,68.61,0,69.25V1099.08H4.34V71L28,46.4v2.51H67.58l43.07-44ZM65.76,44.56h-36L67.92,4.94h36.65Zm999.91,37V1115.59l-21.33,22.16v-.07h-39.56l-43.07,44H86.82V1186h917.12l65.46-68,.61-.64V81.53Zm-63.58,1100.12h-34.3L1006.6,1142h33.62ZM1063.64,47.32H1068V0h-45.11V4.35h40.77ZM4.34,1138.68H0V1186H45.12v-4.35H4.34Z"/></g></g></svg>