<svg xmlns="http://www.w3.org/2000/svg" viewBox="0 0 320.42 319.96"><defs><style>.cls-1{fill:#fff;}</style></defs><g id="Layer_2" data-name="Layer 2"><g id="Layer_4" data-name="Layer 4"><path class="cls-1" d="M320.42,113.51v6a26.39,26.39,0,0,0-.59,3.91c0,21.86,0,43.73-.06,65.59a100.49,100.49,0,0,1-.79,13.44,79.2,79.2,0,0,1-76.87,68.6c-8.12.16-16.24.16-24.36.05A18,18,0,0,0,202.06,279c-7.72,10.44-15.6,20.75-23.38,31.14-9.88,13.23-27.69,13.14-37.59-.16-7.76-10.41-15.61-20.75-23.41-31.12a18.37,18.37,0,0,0-15.47-7.67c-6.75,0-13.51.3-20.24-.09-7.19-.42-14.5-.78-21.48-2.4-34.34-8-59.9-39.47-60.27-74.71C-.2,155.09.09,116.23.16,77.37a65.33,65.33,0,0,1,1-11.17A79.75,79.75,0,0,1,79.68.19q36-.16,72-.19c29.48,0,59,0,88.45.25a91.06,91.06,0,0,1,16,1.56c35.32,6.6,62.79,38.87,63.64,74.71.25,10.74.06,21.48.14,32.23A38.64,38.64,0,0,0,320.42,113.51ZM95.76,160A16,16,0,1,0,96,128a16,16,0,0,0-.19,32Zm127.87,0A16.22,16.22,0,0,0,240,144.43c.3-8.66-7.14-16.34-15.94-16.44a16,16,0,0,0-.41,32Zm-47.82-15.77a15.87,15.87,0,1,0-16,15.77A15.92,15.92,0,0,0,175.81,144.25Z"/></g></g></svg>