<svg id="Layer_1" data-name="Layer 1" xmlns="http://www.w3.org/2000/svg" viewBox="0 0 496.28 526.75"><defs><style>.cls-1{fill:#ede3cc;}.cls-2{fill:#bc9a50;}</style></defs><path d="M524.24,394.41s2.26.09.87,1.29l-1.4,1.21-3.14-1.23S523.37,393.12,524.24,394.41Z" transform="translate(-296.29 -81.86)"/><path d="M531.64,417.06s2.56-1.21,1.25.93l-1.32,2.13-3.79.44S530.4,416.13,531.64,417.06Z" transform="translate(-296.29 -81.86)"/><polygon class="cls-1" points="232.43 260.39 241.59 238.64 232.23 224.5 217.26 253.29 232.72 497.14 245.62 526.75 246.88 521.52 244.73 283.34 232.43 260.39"/><path class="cls-1" d="M553.62,286.11c-.47-8.13-5.52-15.45-5.52-35.77s3.67-37.4,0-70.73c-.74-6.75-1.33-12.79-1.81-18.14-.68-12.76-1.5-24.67-1.83-29.4,0-1.37,0-2.06,0-2.06s0,.29-.06.8c0-.57-.07-.91-.07-.91s0,.79,0,2.39c-.34,4.73-1.13,16.29-1.8,28.72-.48,5.45-1.08,11.59-1.84,18.48-3.67,33.34,0,50.41,0,70.73s-5,27.65-5.51,35.77,5.51,26.83,5.51,26.83a70.17,70.17,0,0,0,3.73-16.39,70.24,70.24,0,0,0,3.74,16.51S554.07,294.24,553.62,286.11Z" transform="translate(-296.29 -81.86)"/><path class="cls-1" d="M544.37,81.86l-16.59,46.28L544.37,185l17.19-56.84Zm-.43,40.42-8.85,14.79,9.28-45,8.2,45Z" transform="translate(-296.29 -81.86)"/><polyline class="cls-1" points="189.8 353.1 193.57 412.21 210.84 449.7 207.82 303.71 189.8 345.3"/><polyline class="cls-1" points="308.22 353.1 304.44 412.21 287.18 449.7 290.2 303.71 308.22 345.3"/><polygon class="cls-1" points="263.66 223.32 254.75 237.04 264.43 259.99 251.68 283.76 251.66 520.45 252.96 525.67 265.6 495.96 278.89 251.99 263.66 223.32"/><path class="cls-1" d="M544.37,328.76s-2.52,8.29-5,10.55c0,0,5,5.79,5,12.07,0,0,2-10.81,6-12.32C550.4,339.06,544.37,334,544.37,328.76Z" transform="translate(-296.29 -81.86)"/><path class="cls-1" d="M544.37,318.05s0,.59.09,1.62.14,2.52.19,4.29.13,3.84.16,6.06.05,4.58.06,7,0,4.73-.06,6.94-.12,4.29-.16,6.07-.15,3.25-.19,4.28-.09,1.63-.09,1.63,0-.59-.1-1.63-.14-2.51-.18-4.28-.13-3.85-.16-6.07,0-4.58-.06-6.94,0-4.73.06-7,.11-4.29.16-6.06.14-3.25.18-4.29S544.37,318.05,544.37,318.05Z" transform="translate(-296.29 -81.86)"/><path class="cls-2" d="M486.34,268.07,462.93,251v0c0-.31-.05-.62-.06-.93l-40.68-4.87-4.85-.67c-12.52-.72-25.36-.67-35.78,1.06-14.83,2.46-32.43,10.39-55.26,9.86,16.62,16.71,31.59,30.51,49.18,42,14.56,9.49,46,2.87,80.61,1.4,12.7,15,47.56,29.9,47.56,29.9s-4.59-4.63-5.65-10.71a45.72,45.72,0,0,1,0-12.86s-.36,12.7,8.07,18.22l11.81-26.12-13.76-29.22Z" transform="translate(-296.29 -81.86)"/><path class="cls-2" d="M448.34,407.15a28.36,28.36,0,0,1-13.5,6.91l5.6,5.43s-1.11,1.54-7.22-1.7a26.25,26.25,0,0,0-9.45-2.62c-1.44,0-2.92-.05-4.48-.16,0,0,11.87,26.47,27.8,49.64-.25-8.77-.33-19.27.56-23.3C448.37,438.14,448.46,423.14,448.34,407.15Z" transform="translate(-296.29 -81.86)"/><path class="cls-2" d="M475.06,332.36a59.56,59.56,0,0,1-20.13-19.68l-35.64,4.67,24.8,27.86,4-6.14,2.84.91c6.45,20.41,12.57,50.75-1.31,65.89-.46,3.19-.92,7.61-.64,16.88.49,15.83,1,31.88,0,37.52-.29,1.63-.52,3.81-.7,6.09,8.54,12.19,18.18,23.25,27.74,28.75-15.81-26.39-18.9-44.35-18.93-52.57-1.29.57-2.17.8-1.95.19a33.06,33.06,0,0,1,2.26-4.16,4.47,4.47,0,0,1,.24-.79,11,11,0,0,1,2.14-3h0c1.52-1.67,3.94-4.1,8-8.69,2.07-9.77,13.17-47.49-5.44-82.42l4.75,1.54L484,358.08l-2.24,40.32s23.49-28,23.07-40.32S488.48,340.18,475.06,332.36Z" transform="translate(-296.29 -81.86)"/><path class="cls-2" d="M476,237.23,296.29,224.58s6,6.62,15.22,16.06c0,0,35.44,3.76,39.95,3.05S343.94,243,356,243s45.14-.65,55.67.8l5.69.79a436.09,436.09,0,0,1,45.52,5.3C462.57,244.61,476,242.51,476,237.23Z" transform="translate(-296.29 -81.86)"/><polygon class="cls-2" points="224.28 106.15 217.26 185.29 229.27 208.01 229.27 117.04 224.28 106.15"/><path class="cls-2" d="M602.53,268,625.94,251V251l.06-.93,40.68-4.88,4.84-.66c12.53-.72,25.37-.68,35.78,1.05,14.84,2.47,32.44,10.4,55.26,9.86C746,272.16,731,286,713.4,297.42c-14.56,9.49-46,2.87-80.61,1.4-12.7,15-47.56,29.9-47.56,29.9s4.59-4.64,5.65-10.71a45.72,45.72,0,0,0,0-12.86s.36,12.7-8.07,18.22L571,297.25,584.75,268Z" transform="translate(-296.29 -81.86)"/><path class="cls-2" d="M640.52,407.11A28.49,28.49,0,0,0,654,414l-5.6,5.43s1.11,1.54,7.22-1.7a26,26,0,0,1,9.45-2.62c1.44,0,2.92-.05,4.47-.16,0,0-11.86,26.46-27.79,49.64.25-8.78.33-19.27-.57-23.3C640.5,438.09,640.41,423.1,640.52,407.11Z" transform="translate(-296.29 -81.86)"/><path class="cls-2" d="M613.81,332.31a59.56,59.56,0,0,0,20.13-19.68l35.63,4.67-24.79,27.86-4-6.14-2.84.92c-6.45,20.41-12.57,50.75,1.31,65.89.46,3.19.92,7.61.63,16.88-.48,15.82-1,31.88,0,37.52.3,1.62.53,3.81.71,6.09-8.55,12.19-18.18,23.25-27.75,28.75,15.81-26.39,18.91-44.35,18.94-52.57,1.28.57,2.17.79,2,.19a32.71,32.71,0,0,0-2.27-4.16,4.32,4.32,0,0,0-.23-.79,11,11,0,0,0-2.14-3h0c-1.52-1.67-3.94-4.1-8-8.69-2.07-9.78-13.17-47.49,5.44-82.42l-4.75,1.53L604.86,358l2.24,40.32S583.61,370.34,584,358,600.39,340.14,613.81,332.31Z" transform="translate(-296.29 -81.86)"/><path class="cls-2" d="M612.85,237.18l179.73-12.64s-6.05,6.62-15.22,16.06c0,0-35.44,3.76-40,3.05s7.52-.71-4.52-.71-45.13-.66-55.67.8l-5.69.79a433.06,433.06,0,0,0-45.51,5.3C626.29,244.56,612.89,242.46,612.85,237.18Z" transform="translate(-296.29 -81.86)"/><polygon class="cls-2" points="272.01 106.11 279.02 185.24 267.01 207.97 267.01 117 272.01 106.11"/></svg>