<svg id="Layer_1" data-name="Layer 1" xmlns="http://www.w3.org/2000/svg" viewBox="0 0 783.79 878.7"><defs><style>.cls-1{fill:#ede3cc;}.cls-2{fill:#bc9a50;}</style></defs><path d="M524.24,394.41s2.26.09.87,1.29l-1.4,1.21-3.14-1.23S523.37,393.12,524.24,394.41Z" transform="translate(-156.05 -81.86)"/><path d="M531.64,417.06s2.56-1.21,1.25.93l-1.32,2.13-3.79.44S530.4,416.13,531.64,417.06Z" transform="translate(-156.05 -81.86)"/><polygon class="cls-1" points="372.67 260.39 381.83 238.64 372.47 224.5 357.5 253.29 372.96 497.14 385.86 526.75 387.12 521.52 384.97 283.34 372.67 260.39"/><path class="cls-1" d="M553.62,286.11c-.47-8.13-5.52-15.45-5.52-35.77s3.67-37.4,0-70.73c-.74-6.75-1.33-12.79-1.81-18.14-.68-12.76-1.5-24.67-1.83-29.4,0-1.37,0-2.06,0-2.06s0,.29-.06.8c0-.57-.07-.91-.07-.91s0,.79,0,2.39c-.34,4.73-1.13,16.29-1.8,28.72-.48,5.45-1.08,11.59-1.84,18.48-3.67,33.34,0,50.41,0,70.73s-5,27.65-5.51,35.77,5.51,26.83,5.51,26.83a70.17,70.17,0,0,0,3.73-16.39,70.24,70.24,0,0,0,3.74,16.51S554.07,294.24,553.62,286.11Z" transform="translate(-156.05 -81.86)"/><path class="cls-1" d="M544.37,81.86l-16.59,46.28L544.37,185l17.19-56.84Zm-.43,40.42-8.85,14.79,9.28-45,8.2,45Z" transform="translate(-156.05 -81.86)"/><polyline class="cls-1" points="330.04 353.1 333.81 412.21 351.08 449.7 348.06 303.71 330.04 345.3"/><polyline class="cls-1" points="448.46 353.1 444.68 412.21 427.42 449.7 430.44 303.71 448.46 345.3"/><polygon class="cls-1" points="403.9 223.32 395 237.04 404.67 259.99 391.92 283.76 391.89 520.45 393.2 525.67 405.83 495.96 419.13 251.99 403.9 223.32"/><path class="cls-1" d="M544.37,328.76s-2.52,8.29-5,10.55c0,0,5,5.79,5,12.07,0,0,2-10.81,6-12.32C550.4,339.06,544.37,334,544.37,328.76Z" transform="translate(-156.05 -81.86)"/><path class="cls-1" d="M544.37,318.05s0,.59.09,1.62.14,2.52.19,4.29.13,3.84.16,6.06.05,4.58.06,7,0,4.73-.06,6.94-.12,4.29-.16,6.07-.15,3.25-.19,4.28-.09,1.63-.09,1.63,0-.59-.1-1.63-.14-2.51-.18-4.28-.13-3.85-.16-6.07,0-4.58-.06-6.94,0-4.73.06-7,.11-4.29.16-6.06.14-3.25.18-4.29S544.37,318.05,544.37,318.05Z" transform="translate(-156.05 -81.86)"/><path class="cls-2" d="M486.34,268.07,462.93,251v0c0-.31-.05-.62-.06-.93l-40.68-4.87-4.85-.67c-12.52-.72-25.36-.67-35.78,1.06-14.83,2.46-32.43,10.39-55.26,9.86,16.62,16.71,31.59,30.51,49.18,42,14.56,9.49,46,2.87,80.61,1.4,12.7,15,47.56,29.9,47.56,29.9s-4.59-4.63-5.65-10.71a45.72,45.72,0,0,1,0-12.86s-.36,12.7,8.07,18.22l11.81-26.12-13.76-29.22Z" transform="translate(-156.05 -81.86)"/><path class="cls-2" d="M448.34,407.15a28.36,28.36,0,0,1-13.5,6.91l5.6,5.43s-1.11,1.54-7.22-1.7a26.25,26.25,0,0,0-9.45-2.62c-1.44,0-2.92-.05-4.48-.16,0,0,11.87,26.47,27.8,49.64-.25-8.77-.33-19.27.56-23.3C448.37,438.14,448.46,423.14,448.34,407.15Z" transform="translate(-156.05 -81.86)"/><path class="cls-2" d="M475.06,332.36a59.56,59.56,0,0,1-20.13-19.68l-35.64,4.67,24.8,27.86,4-6.14,2.84.91c6.45,20.41,12.57,50.75-1.31,65.89-.46,3.19-.92,7.61-.64,16.88.49,15.83,1,31.88,0,37.52-.29,1.63-.52,3.81-.7,6.09,8.54,12.19,18.18,23.25,27.74,28.75-15.81-26.39-18.9-44.35-18.93-52.57-1.29.57-2.17.8-1.95.19a33.06,33.06,0,0,1,2.26-4.16,4.47,4.47,0,0,1,.24-.79,11,11,0,0,1,2.14-3h0c1.52-1.67,3.94-4.1,8-8.69,2.07-9.77,13.17-47.49-5.44-82.42l4.75,1.54L484,358.08l-2.24,40.32s23.49-28,23.07-40.32S488.48,340.18,475.06,332.36Z" transform="translate(-156.05 -81.86)"/><path class="cls-2" d="M476,237.23,296.29,224.58s6,6.62,15.22,16.06c0,0,35.44,3.76,39.95,3.05S343.94,243,356,243s45.14-.65,55.67.8l5.69.79a436.09,436.09,0,0,1,45.52,5.3C462.57,244.61,476,242.51,476,237.23Z" transform="translate(-156.05 -81.86)"/><polygon class="cls-2" points="364.51 106.15 357.5 185.29 369.51 208.01 369.51 117.04 364.51 106.15"/><path class="cls-2" d="M602.53,268,625.94,251V251l.06-.93,40.68-4.88,4.84-.66c12.53-.72,25.37-.68,35.78,1.05,14.84,2.47,32.44,10.4,55.26,9.86C746,272.16,731,286,713.4,297.42c-14.56,9.49-46,2.87-80.61,1.4-12.7,15-47.56,29.9-47.56,29.9s4.59-4.64,5.65-10.71a45.72,45.72,0,0,0,0-12.86s.36,12.7-8.07,18.22L571,297.25,584.75,268Z" transform="translate(-156.05 -81.86)"/><path class="cls-2" d="M640.52,407.11A28.49,28.49,0,0,0,654,414l-5.6,5.43s1.11,1.54,7.22-1.7a26,26,0,0,1,9.45-2.62c1.44,0,2.92-.05,4.47-.16,0,0-11.86,26.46-27.79,49.64.25-8.78.33-19.27-.57-23.3C640.5,438.09,640.41,423.1,640.52,407.11Z" transform="translate(-156.05 -81.86)"/><path class="cls-2" d="M613.81,332.31a59.56,59.56,0,0,0,20.13-19.68l35.63,4.67-24.79,27.86-4-6.14-2.84.92c-6.45,20.41-12.57,50.75,1.31,65.89.46,3.19.92,7.61.63,16.88-.48,15.82-1,31.88,0,37.52.3,1.62.53,3.81.71,6.09-8.55,12.19-18.18,23.25-27.75,28.75,15.81-26.39,18.91-44.35,18.94-52.57,1.28.57,2.17.79,2,.19a32.71,32.71,0,0,0-2.27-4.16,4.32,4.32,0,0,0-.23-.79,11,11,0,0,0-2.14-3h0c-1.52-1.67-3.94-4.1-8-8.69-2.07-9.78-13.17-47.49,5.44-82.42l-4.75,1.53L604.86,358l2.24,40.32S583.61,370.34,584,358,600.39,340.14,613.81,332.31Z" transform="translate(-156.05 -81.86)"/><path class="cls-2" d="M612.85,237.18l179.73-12.64s-6.05,6.62-15.22,16.06c0,0-35.44,3.76-40,3.05s7.52-.71-4.52-.71-45.13-.66-55.67.8l-5.69.79a433.06,433.06,0,0,0-45.51,5.3C626.29,244.56,612.89,242.46,612.85,237.18Z" transform="translate(-156.05 -81.86)"/><polygon class="cls-2" points="412.25 106.11 419.26 185.24 407.25 207.97 407.25 117 412.25 106.11"/><path class="cls-1" d="M386.91,959.74a9.62,9.62,0,0,0,3.15-4.4,20.29,20.29,0,0,0,1.33-7.88V914.27a21.39,21.39,0,0,0-1.16-7,9.39,9.39,0,0,0-3.32-4.86v-.16h18.84a12.47,12.47,0,0,0,.83,3.11,35,35,0,0,0,2.57,4.85l12,20.08a119.54,119.54,0,0,1,7.63,16.43h.33a99.84,99.84,0,0,1-1.32-17.09V914.68a22.37,22.37,0,0,0-1.21-8,8.47,8.47,0,0,0-3-4.32v-.16h19.17v.16a9.18,9.18,0,0,0-3.15,4.36,20.61,20.61,0,0,0-1.33,7.92v32.78a20.61,20.61,0,0,0,1.33,7.92,9.18,9.18,0,0,0,3.15,4.36v.17H425.16A57.56,57.56,0,0,0,421,952l-11.7-19a81.81,81.81,0,0,1-4.82-8.92,97.93,97.93,0,0,1-3.81-10h-.34c.61,3.6,1,6.83,1.21,9.71s.29,6.06.29,9.54v14.11a22.58,22.58,0,0,0,1.2,8,8.47,8.47,0,0,0,3,4.32v.17H386.91Z" transform="translate(-156.05 -81.86)"/><path class="cls-1" d="M485.65,959.74a9.7,9.7,0,0,0,3.16-4.4,20.49,20.49,0,0,0,1.32-7.88V914.68a20.43,20.43,0,0,0-1.32-7.92,9.72,9.72,0,0,0-3.16-4.36v-.16h20.42v.16a9.76,9.76,0,0,0-3.16,4.4,20.49,20.49,0,0,0-1.32,7.88v32.78a20.39,20.39,0,0,0,1.32,7.92,9.72,9.72,0,0,0,3.16,4.36v.17H485.65Z" transform="translate(-156.05 -81.86)"/><path class="cls-1" d="M549.05,959.74a9.69,9.69,0,0,0,3.15-4.4,20.29,20.29,0,0,0,1.33-7.88V914.27a21.39,21.39,0,0,0-1.16-7,9.45,9.45,0,0,0-3.32-4.86v-.16h18.83a13.4,13.4,0,0,0,.83,3.11,35.29,35.29,0,0,0,2.58,4.85l12,20.08a120.74,120.74,0,0,1,7.63,16.43h.33a99.77,99.77,0,0,1-1.33-17.09V914.68a22.62,22.62,0,0,0-1.2-8,8.47,8.47,0,0,0-3-4.32v-.16h19.17v.16a9.11,9.11,0,0,0-3.15,4.36,20.61,20.61,0,0,0-1.33,7.92v32.78a20.61,20.61,0,0,0,1.33,7.92,9.11,9.11,0,0,0,3.15,4.36v.17H587.3a57.72,57.72,0,0,0-4.15-7.89l-11.7-19a83.38,83.38,0,0,1-4.81-8.92,97.78,97.78,0,0,1-3.82-10h-.33a96.85,96.85,0,0,1,1.2,9.71q.3,4.32.3,9.54v14.11a22.35,22.35,0,0,0,1.2,8,8.47,8.47,0,0,0,3,4.32v.17H549.05Z" transform="translate(-156.05 -81.86)"/><path class="cls-1" d="M689.53,944.06l-2.32,16.51a36.72,36.72,0,0,0-4.44-.54c-1.41-.08-3.31-.12-5.69-.12H647.79v-.17a9.62,9.62,0,0,0,3.15-4.4,20.29,20.29,0,0,0,1.33-7.88V914.68a20.23,20.23,0,0,0-1.33-7.92,9.64,9.64,0,0,0-3.15-4.36v-.16h29.79a42.22,42.22,0,0,0,8.8-.67l1.41,14.85-.17.09a9.69,9.69,0,0,0-4.81-4.61,19.62,19.62,0,0,0-8.22-1.53h-11V925H670q5.22,0,7.71-.12c1.66-.09,3.4-.24,5.23-.46l-2.41,13.94h-.16a7.15,7.15,0,0,0-3.24-4,11.89,11.89,0,0,0-5.81-1.25h-7.63v18.67h9a22.8,22.8,0,0,0,9.75-2,17,17,0,0,0,6.93-5.81Z" transform="translate(-156.05 -81.86)"/><path class="cls-2" d="M163.69,720.66c.62,1.46-3.89,9.61-3.45,11.27.59-1.16,6.24-8.67,6.87-9,2.54-1.51,3.26-1.71,5.8-6a36,36,0,0,1,6.3-7H156.05v.4Q160.48,713.13,163.69,720.66Z" transform="translate(-156.05 -81.86)"/><path class="cls-2" d="M182.43,709.91c.74-.36-.76.33,0,0Z" transform="translate(-156.05 -81.86)"/><path class="cls-2" d="M361,838.63a41.83,41.83,0,0,1-2.51-10.17l-3.59-6.53-13.79-10s-6.07-9.77-9.57-7.51a1.66,1.66,0,0,1-1.08.31v14.7q0,11.44-3.22,19.19t-7.64,10.55v.4h48.44v-.4Q364.06,846.17,361,838.63Z" transform="translate(-156.05 -81.86)"/><path class="cls-2" d="M400.23,792.1q13.06-4.22,20.2-14.16t7.14-25.63q0-19.69-13.47-31t-37.38-11.35H319.64v.4c2.95,1.88,5.5,5.32,7.64,10.35s3.22,11.22,3.22,18.59v51.52a38.17,38.17,0,0,1,2.48,4.68l-1.05,1.89.88.87c.87.86,1.21-.86,1.21-.86l15.13,15.28,2.45,3.61,6.43,3.62V736.51l-13.74-6.71H358l14.07-.2q12.86-.2,19.89,6.23t7,17.49q0,13.06-6.84,19t-20.09,5.93h-9.65l31.15,53.25a115.53,115.53,0,0,1,10.25,22.31h41.2C428.66,846.24,408,804.57,400.23,792.1Z" transform="translate(-156.05 -81.86)"/><path class="cls-2" d="M520.31,831.37c-2.42-3.15-7.26-3.87-9.92-9.2a31.76,31.76,0,0,0-6.53-9.44c-.11-.11-.22,6.83-.33,6.71q0,11.44-3.21,19.09t-7.64,10.65v.4h33.21a37.88,37.88,0,0,1-1.22-5.63C524.18,838.87,522.73,834.51,520.31,831.37Z" transform="translate(-156.05 -81.86)"/><path class="cls-2" d="M531.37,715.11c-.28,1-.54,2.08-.81,3.25-1.06,4.64-2.13,10.14-3,16-.41,3-.8,6-1,9.13a41.52,41.52,0,0,0,.23,9.27c.27,1.58.53,3.17.8,4.75s.38,3.21.58,4.79c.39,3.18.62,6.28.9,9.28s.46,5.91.67,8.67.37,5.36.54,7.76c.62,9.62.95,16,.95,16v-64q0-11.44,3.21-19.09t7.64-10.65v-.4c0,.62-9.87,1.25-10,1.93A33.2,33.2,0,0,1,531.37,715.11Z" transform="translate(-156.05 -81.86)"/><path class="cls-2" d="M528.78,780.38c-.34-2.74-.64-5.63-1-8.61s-.77-6.08-1.28-9.16c-.26-1.54-.43-3.1-.77-4.66l-1-4.7a43.33,43.33,0,0,1-.68-9.83c.06-3.21.32-6.34.61-9.37.6-6,1.45-11.64,2.33-16.44.22-1.18.47-2.39.72-3.49a28.1,28.1,0,0,0,.55-2.82c0-.48-11.16-2.55-11.15-3l-24.4,1.61v.4q4.43,3,7.64,10.55t3.21,19.19V807.2a21,21,0,0,1,6.13,7.95c3.88,8.72,12.59,11.62,15.49,19.36,1.22,3.25,5.29,9.23,6.3,15.07h10.67v-.4q-4.43-3-7.64-10.55t-3.21-19.19V804.09s-.6-6.4-1.63-16C529.37,785.72,529.08,783.12,528.78,780.38Z" transform="translate(-156.05 -81.86)"/><path class="cls-2" d="M768.41,820l5.43-23.19c-2.17,2.61-10.07,24.86-12,25.56-6.58,2.38-9.68,2.91-14.52,10.17a19.31,19.31,0,0,1-8,6.51c-.2.7-.38,1.39-.62,2q-2,5.63-4.82,8l.2.4h46l.2-.4A37.1,37.1,0,0,1,772.13,836,57.09,57.09,0,0,1,768.41,820Z" transform="translate(-156.05 -81.86)"/><path class="cls-2" d="M738.47,748.09a189.28,189.28,0,0,0-1.61,23.72q0,4,.4,10.85l3.22,41.6a31.18,31.18,0,0,1,.2,4,47.6,47.6,0,0,1-.31,5.18c4.71-3.67,7.75-16.41,16.69-18.79,6.37-1.7,7.07-17.66,9.27-20.71l-4.15-51.9a51,51,0,0,1,2.42-18.79q3-9.54,9.24-13l-.2-.4H727.21a6.79,6.79,0,0,1,1.41,4.62q0,5-4.42,13.06l-19.7,34.77q-6.22,11.05-9.54,18a77.86,77.86,0,0,0-5.33,15.17h-.8q-2.42-15.87-12.46-33.16l-19.9-34.17q-4.62-8-4.62-13.46a7.13,7.13,0,0,1,1.41-4.82h-46l-.2.4q5.63,3.42,8.35,11.25a50.9,50.9,0,0,1,2.71,16.68l-.21,3.82-5.22,78a50.88,50.88,0,0,1-3.82,16.58,48.38,48.38,0,0,1-8.24,12.56l.2.4H627a58.29,58.29,0,0,1,2.55-7c1.45-2.9.36-26.5,1.47-29.77s2.52-97.64,2.52-97.64.36,78.77.73,88.88-1.82,14.21-2.91,22.56,0,6.53,0,15.61c0,3.33,5.17,5.68,4.55,7.32H645l.2-.4c-2.15-1.88-3.86-5-5.13-9.45a48.44,48.44,0,0,1-1.51-15.47l2.22-41.6q.19-2.82.2-9.45,0-11-1.41-25.12h.8a145.19,145.19,0,0,0,6.14,18.09,112.53,112.53,0,0,0,8.33,15.88l23.92,38.18q8.64,13.66,10.05,24.12h1.61q1-10.26,9.44-24.32l22.31-37.78q5.22-9,8.84-16.78a138.06,138.06,0,0,0,6.64-17.39Z" transform="translate(-156.05 -81.86)"/><path class="cls-2" d="M939.44,811a41.31,41.31,0,0,1-16.78,14.06A55.23,55.23,0,0,1,899,829.89H865l12.13-9.12v-36.1h18.49q8.64,0,14.07,3a17.31,17.31,0,0,1,7.83,9.65h.41l5.82-33.76q-6.63.79-12.66,1.1t-18.69.3H877.14v-26.6l-14.2-8.77h40.73q11.85,0,19.89,3.72a23.4,23.4,0,0,1,11.66,11.15l.4-.2-3.42-36q-7,1.61-21.3,1.61H838.75v.4q4.43,3,7.64,10.55t3.22,19.19v10.73c0,10.73,4.67,6.53,4.67,6.53,4.68-4.35,16.46-9.89,16.46-9.89s-7.55,3.91-12.37,14.84c-2.32,5.25-8.76,29.66-8.76,29.66v27.52q0,11.44-3.22,19.09t-7.64,10.65v.4h71c5.75,0,10.35.1,13.76.3a91.65,91.65,0,0,1,10.75,1.31l5.63-40Z" transform="translate(-156.05 -81.86)"/><path class="cls-2" d="M248.3,721.76Q235,709.91,210.92,709.91H182.43c-4.12,2-3.26,4-5.8,7.22-1.31,1.67-3.24,9.6-10.32,13.35a41.48,41.48,0,0,1,.59,8.77v80.19q0,11.44-3.21,19.09t-7.64,10.65v.4h49.24v-.4q-4.42-2.82-7.64-10.35t-3.21-18.59v-82.7l-11.8-7.74H206.3q13.66,0,20.19,6.53t6.53,20.4c0,5.42.68,5.31-.92,9.09,1.3-.94,3.46,1.32,5.7.55a52.58,52.58,0,0,0,8.08-3.49s-2.8,3.24-11.62,7.26c-2.09,1-4.81,3.5-6.54,5.32a17.71,17.71,0,0,1-1.65,1.81l-.07.09v0q-6.67,6.43-19.71,6.34l-11.86-.2,16.48,20.1q24.51,0,37.58-12.06t13.06-36.17Q261.56,733.63,248.3,721.76Z" transform="translate(-156.05 -81.86)"/></svg>