<svg xmlns="http://www.w3.org/2000/svg" viewBox="0 0 2614.64 1350.03"><defs><style>.cls-1{fill:#f3dcc2;}.cls-2{fill:#262018;}.cls-3{fill:#231d15;}.cls-4{fill:#453e35;}.cls-5{fill:#96918c;}.cls-6{fill:#605b53;}.cls-7{fill:#393227;}.cls-8{fill:#fafafa;}.cls-9{fill:#cbc8c5;}.cls-10{fill:#fdfdfd;}.cls-11{fill:#87837c;}.cls-12{fill:#b8b6b4;}.cls-13{fill:#d3d1cf;}.cls-14{fill:#514a42;}.cls-15{fill:#76716a;}.cls-16{fill:#c3c1bd;}.cls-17{fill:#6e6961;}.cls-18{fill:#b3b0ac;}.cls-19{fill:#bdbbb7;}.cls-20{fill:#231c12;}.cls-21{fill:#262017;}.cls-22{fill:#302b24;}.cls-23{fill:#aca9a5;}.cls-24{fill:#bcb9b6;}.cls-25{fill:#f6f6f5;}</style></defs><g id="Layer_2" data-name="Layer 2"><g id="Layer_1-2" data-name="Layer 1"><path class="cls-1" d="M2430.71,515.24c-1.52-51-3.09-107-3.21-112.67-.08-3.34-.1-13.67-.09-28.83,0-23.17.15-57.62.33-95.58,0-8.29.08-16.76.13-25.31.37-73.27,1.5-76.46-.43-168.84-.78-36.95-1-64.19-1-83.61L621.78.49c-13.67,0-61.52.16-102.51,7s-37.59.1-37.59.1-71.76,7-82,7A61.9,61.9,0,0,1,389,13L386,1.09l-12,0L345,1.2l-17.09,0-99.11.25c-6.49,2-6.21,1.76-13.39,4.23l-16.29,161,4-138.58c0-7.14-13.23-8.36-12.81-13.54-4.48,1.56-6.83,2.76-8,3.78.58-10.55-18.49-16.68-15-16.7L47.52,2c-16,0-28.93,11.18-28.9,24.88l.15,59.76C7,92,0,95.25,0,95.25s7.42-2.59,18.78-6.77L19,158.13c6,5.34,9.9,9,9.9,9L19.22,264,29.38,375.51l-9.73,54.17.17,66.9C26,508.87,28.67,518,29.46,525.22c4.76,5.63,9.27,11.2,12.69,15.9,12.86,17.7.08,35,.08,35l-22,302.68.19,73.27.15,60.53.1,38.22.13,51,.14,54.15L21,1209.8l6.09,15,45.14-28.31L51.82,1222.8l-1.8,4.78c-1.78,4.79-28.91,16.8-28.91,16.8l.07,26.28.09,38.23,0,11c0,13.7,13,24.78,29,24.73l35.13-.08L85.27,1274s-.68-80.62-.2-77.54c1.36,8.7,1.34,23.57,1,35.81-.3,11.28-.87,20.33-.87,20.33l4.35,31.05-3.41,60.93,23.65-3.86,8.88-32.06L129,1326.53l18,17.88,1900.4-.34,62.38-.16,23.06-.06,17-26.32.07,26.28,75.16-12.14,7.72,11.93,142.69-.37,99.08-13.39-20.51.06s10.22-13.17,20.51-.06l10.29,13.12,44.42-.12,56.49-.14c16,0,28.93-11.17,28.89-24.87l-.12-49.27-.08-28.67-.15-60.52c-.05-19.12-17.12-9.51-.18-70.08l-.18-70.08-30.63,47.86,30.59-66.5-.12-48-11.71-48.06S2613.31,555,2613.3,551.82l-.37-147.76c-11.51-6.82-33.53-11.21-55.73-13.44-21.48.18-42.68.15-60.39-.16-16.58,2.42,16.29,2.34-24,2.44-44.43.11-44.45-9.08-17.09-4.56,6.64,1.1,21.8,1.78,41.13,2.12,1.69-.25,3.88-.52,6.71-.82,12.59-1.34,33.2-1.09,53.68,1,19.15-.17,38.46-.51,55.69-1l-.08-32.16-17.24-57.29,17-41.46-.19-73.27,0-20.44-.22-84.68L2612,24.73c0-13.7-13-24.77-29-24.73l-77,.19-75.18.19c-1.45,34.26.55,61.32.29,112.3s.56,63.71.19,76.45.61,238.91.61,238.91m29,885.51c-5.29,3.6-8.08,6.92-9.22,9.94C2450.39,1321.28,2447.16,1319.16,2460.84,1313.55Zm-214.32,18.6c13.42,3,31.91,8.37,38.89,10.44C2262.28,1340.57,2251.07,1335.18,2246.52,1332.15ZM196.21,199.52l1.19-2C197,198.15,196.64,198.8,196.21,199.52Zm1.5-59.65,0,11.95C183.78,142.63,197.71,139.87,197.71,139.87ZM2506.32,1298.64l-5.85,4.29C2500,1292.81,2506.32,1298.64,2506.32,1298.64Zm-117.24,36.45-4.34-5.81C2394.87,1328.71,2389.08,1335.09,2389.08,1335.09ZM216.32,954.8,212,949C222.11,948.42,216.32,954.8,216.32,954.8Zm2311-897.32L2523,51.67C2533.1,51.1,2527.31,57.48,2527.31,57.48ZM2496,37.25l-8.07-10.82C2506.77,25.37,2496,37.25,2496,37.25ZM489.68,37.17l-8.07-10.82C500.46,25.3,489.68,37.17,489.68,37.17ZM2533.11,1322.92l-12,8.83C2520.07,1310.89,2533.11,1322.92,2533.11,1322.92Zm-51.65,13,4.91,14.11C2466.13,1344.85,2481.46,1335.92,2481.46,1335.92Z"/><path class="cls-2" d="M1332.4,1096.89c2,0,3.93.11,5.89.11l345,0q245.24,0,490.47-.08,162.42,0,324.85.19c16.54,0,33.09.11,49.63.08a47.76,47.76,0,0,0,6.25-.82l.79-.89c.06-2.49.17-5,.17-7.48,0-45,.13-90,0-135q-.4-110.86-1.13-221.73c-.1-16.62-.56-33.23-.83-49.85-.33-21.1-.88-42.2-.91-63.3q-.21-152.68-.19-305.38c0-31.65.1-63.31.15-95,0-1.48,0-3,0-4.84h5.92v5.4c0,26.49-.08,53,.05,79.47q.54,115.6,1.23,231.23c0,1.14.22,2.29.34,3.44l.33,1c0,2.54.06,5.08.06,7.61,0,11.5-.06,23,0,34.49q.47,76.89,1,153.78.18,29.24.26,58.47.33,148.68.55,297.36c0,17.21-1.18,34.43-1.86,51.64-.26,6.78-1.42,13.63-.84,20.33,4,46.33.95,92.75,1.78,139.11.14,7.45-.46,14.93-1.05,22.37-.11,1.36-1.82,2.59-2.79,3.88l-80.6,0H2374.66l-114.06,0-147.43,0c-1.8,0-3.6-.11-5.4-.11H1579.62l-280.54,0q-357,0-714.11,0a21.82,21.82,0,0,0-4.56,1h-1a24.44,24.44,0,0,0-4.6-1c-9.17-.09-18.35,0-27.52,0l-85,.18-92.38,0c-18,0-36-.11-54.06-.11-19.65,0-39.3.09-58.95.14h-86.5c-31.42-.06-62.83-.21-94.24-.07-4.62,0-6-1.66-6-6,.07-6.64-.18-13.29-.29-19.93a19,19,0,0,0,.22-2q0-67.62-.06-135.24l-.12-37c.07-1.32.19-2.65.21-4,.34-29.74.61-59.48,1-89.22.15-11.27.75-22.54.8-33.81,0-7.94-.7-15.88-.79-23.83-.4-32.9-.91-65.81-1-98.71q-.19-123.64,0-247.28c0-2-.1-4-.16-6,0-19.81.15-39.63.14-59.45,0-17.49-.13-35-.2-52.46.08-2.16.21-4.32.21-6.48q0-195.33,0-390.67c0-2-.07-4-.1-6l0-48V44.56c.51-10.07.51-10.06,10.47-9.86,7.35.15,14.69.15,22,.51,1.38.07,2.71,1.49,4.06,2.29-1.36.72-2.7,2-4.08,2-8.48.28-17,.28-25.46.37l-.67.62Q76.3,71,76.24,101.46c0,17.48-.61,35,.22,52.43,1.33,27.81.07,55.6.68,83.39a29.58,29.58,0,0,0,1.07,5.26q0,42.5,0,85-.07,39.47-.14,78.91,0,234,0,468.06c0,2,.11,4,.17,6l.75,1c15,.11,30.1.32,45.16.32q79.6,0,159.21-.15,81.08,0,162.16,0,243.73.1,487.47.24c2.61,0,5.23-.05,7.85-.08l1.36.19c14.09,0,28.18.13,42.26.14q156.32,0,312.61,0,156.06,0,312.12.12l519.53.19a8.1,8.1,0,0,1,2.92.07,15.21,15.21,0,0,1,3,2.13,11.35,11.35,0,0,1-2.83,1.8,12.17,12.17,0,0,1-3.42.08q-237.16.06-474.32.12-139.83.06-279.67.24-195.37.17-390.74.33-288.29.09-576.56,0-160.71-.07-321.43-.58h-6.1c-3.43,142.7.58,285.1-.6,427.81,10.37,0,20.19,0,30,0a5.49,5.49,0,0,0,2.34-.93c1.19-.66,2.32-2.07,3.49-2.08,25.71-.23,51.59-2.27,77.1,0,44.3,4,88.53,1.12,132.78,1.85s88.8.14,133.2.14h863.6c2,0,3.93,0,5.9.06.7,1,1.4,1.95,2.11,2.92l2.11-2.93c2,0,3.93-.05,5.9-.05q314,.51,628,1c53.42.08,106.83,0,160.25.13,3.28,0,8.13-2.68,9.63,3.43.06.23,1.21.25,1.86.25q18.12,0,36.25,0c-.17-.54-.34-1.08-.5-1.63,1.61-.84,3.21-2.38,4.84-2.41q17.91-.35,35.81-.06c1.25,0,2.49,1.68,3.69,2.63.54.42.92,1.11,1.5,1.36.23.09,1.17-.66,1.18-1,.13-4.09,3.32-3.08,5.43-3.14q14.23-.42,28.49-.41,122.88,0,245.76,0c1.64,0,3.27.22,4.9.22,15.85,0,31.71,0,47.88,0,0-11.18.06-22.54,0-33.9q-.52-87.15-1.12-174.3v-4.85c-2.2,0-4,0-5.73,0-15.85.24-31.71.71-47.57.72q-421,.08-842,.06-162.21,0-324.41-.06C1331.9,1099.9,1332.15,1098.4,1332.4,1096.89Z"/><path class="cls-3" d="M1875.87,38.26q-191,0-382,.07c-2.69,0-5.37.92-8.06,1.4-1.3,0-2.61-.16-3.91-.16H1063.1c-1.31,0-2.61.11-3.92.17-1.63,0-3.27-.13-4.9-.13l-801.12.07q-54.32,0-108.62-.08H139.3v-6c8.48,0,16.79.06,25.09,0a27.61,27.61,0,0,0,5.08-1q97.67,0,195.34,0a25.85,25.85,0,0,0,5.18-1c7.37.05,14.73.16,22.1.14q35.13-.06,70.26-.21l117,.12c.33,0,.66.1,1,.1q357.38,0,714.75,0a17.48,17.48,0,0,0,4-.95h1a30.84,30.84,0,0,0,5.38.95q400.68.06,801.35,0c2.13,0,4.25-.1,6.37-.16,1.64.06,3.27.17,4.91.17h433c2.13,0,4.26-.09,6.38-.14.69,1.78,2,3.55,2,5.33.14,20.64,0,41.29.09,61.93q.1,46.44.27,92.88c0,1.8-.23,3.6-.38,5.68h-5v-6.89c0-25.47,1.69-51.08-.42-76.37s-.32-50.28-1.55-75.38l-1-.91-284.55.06q-192.64.07-385.3.18c-1.47,0-2.94.06-4.42.1Z"/><path class="cls-4" d="M1299.08,1322.44l280.54,0h528.15c1.8,0,3.6.07,5.4.11a8.65,8.65,0,0,0-.1.89h-814C1299.06,1323.08,1299.07,1322.76,1299.08,1322.44Z"/><path class="cls-5" d="M2113.14,31.39c-2.12.06-4.24.16-6.37.16q-400.68,0-801.35,0a30.84,30.84,0,0,1-5.38-.95h813C2113.09,30.84,2113.12,31.12,2113.14,31.39Z"/><path class="cls-6" d="M1299.06,30.57a17.48,17.48,0,0,1-4,.95q-357.37.06-714.75,0c-.32,0-.65-.07-1-.1a2.08,2.08,0,0,0,.1-.89Z"/><path class="cls-7" d="M1299.08,1322.44c0,.32,0,.64,0,1H580.41a21.82,21.82,0,0,1,4.56-1Q942,1322.41,1299.08,1322.44Z"/><path class="cls-8" d="M70,619.54c.06,2,.16,4,.16,6q0,123.63,0,247.28c.06,32.9.57,65.81,1,98.71.09,8,.82,15.89.79,23.83,0,11.27-.65,22.54-.8,33.81-.4,29.74-.67,59.48-1,89.22,0,1.33-.14,2.66-.21,4a.57.57,0,0,0-.76.07V619.49l.4.1Z"/><path class="cls-9" d="M2113.14,31.39c0-.27,0-.55-.07-.82h444.37a4,4,0,0,0,0,.85c-2.12,0-4.25.14-6.38.14h-433C2116.41,31.56,2114.78,31.45,2113.14,31.39Z"/><path class="cls-10" d="M370,31.41a25.85,25.85,0,0,1-5.18,1q-97.67.07-195.34,0V30.57H370A5.91,5.91,0,0,1,370,31.41Z"/><path class="cls-11" d="M70.06,104.49c0,2,.1,4,.1,6q0,195.33,0,390.67c0,2.16-.13,4.32-.21,6.48a.58.58,0,0,1-.75-.12V104.56C69.48,104.55,69.77,104.52,70.06,104.49Z"/><path class="cls-12" d="M2586,327.53c-1,3.19-2.43,6.31-3,9.58-1.25,7.46-2.12,15-3.09,22.49-.62,4.75-1.17,9.5-1.71,14.26-.71,6.15-1.38,12.31-2.07,18.47l-1.42-.1c.56-7.3,1-14.62,1.72-21.91.49-4.86,1.61-9.66,2.08-14.52.73-7.65,1-15.35,1.76-23,.66-6.33,1.71-12.63,2.89-18.89.24-1.26,1.84-2.26,2.82-3.38Z"/><path class="cls-6" d="M2113.07,1323.41a8.65,8.65,0,0,1,.1-.89l147.43,0a6.36,6.36,0,0,0-.06.87Z"/><path class="cls-11" d="M70.08,1159.36q0,67.62.06,135.24a19,19,0,0,1-.22,2l-.42.17-.3-.34v-137h.44Z"/><path class="cls-13" d="M69.2,1296.41l.3.34.42-.17c.11,6.64.36,13.29.29,19.93,0,4.35,1.35,6,6,6,31.41-.14,62.82,0,94.24.07,0,.27,0,.54,0,.82H69.2Z"/><path class="cls-5" d="M579.43,30.57a2.08,2.08,0,0,1-.1.89l-117-.12a1.69,1.69,0,0,1,.09-.77Z"/><path class="cls-14" d="M462.31,1322.6l85-.18c9.17,0,18.35-.05,27.52,0a24.44,24.44,0,0,1,4.6,1h-117C462.4,1323.13,462.36,1322.87,462.31,1322.6Z"/><path class="cls-15" d="M2260.54,1323.41a6.36,6.36,0,0,1,.06-.87l114.06,0c0,.27-.06.54-.08.82Z"/><path class="cls-5" d="M256.92,1322.6c19.65,0,39.3-.13,58.95-.14,18,0,36,.07,54.06.11a7.71,7.71,0,0,1,.1.84H257C256.94,1323.14,256.93,1322.87,256.92,1322.6Z"/><path class="cls-16" d="M69.2,507.51a.58.58,0,0,0,.75.12c.07,17.49.2,35,.2,52.46,0,19.82-.09,39.64-.14,59.45l-.41.05-.4-.1Z"/><path class="cls-5" d="M2374.58,1323.41c0-.28,0-.55.08-.82h102.22c0,.27-.05.55-.06.83Z"/><path class="cls-9" d="M462.44,30.57a1.69,1.69,0,0,0-.09.77q-35.13.12-70.26.21c-7.37,0-14.73-.09-22.1-.14a5.91,5.91,0,0,0,0-.84Z"/><path class="cls-17" d="M370,1323.41a7.71,7.71,0,0,0-.1-.84l92.38,0c.05.27.09.53.13.81Z"/><path class="cls-18" d="M256.92,1322.6c0,.27,0,.54.05.81H170.46c0-.28,0-.55,0-.82Z"/><path class="cls-19" d="M2476.82,1323.41c0-.28,0-.56.06-.83l80.6,0a3.09,3.09,0,0,0,0,.86Z"/><path class="cls-16" d="M70.06,104.49c-.29,0-.58.06-.86.07v-48l.4-.1.41,0Z"/><path class="cls-16" d="M70.08,1159.36l-.44.07H69.2v-37a.57.57,0,0,1,.76-.07Z"/><path class="cls-10" d="M70,56.51l-.41,0-.4.1v-12H70Z"/><path class="cls-20" d="M1327.42,1101.4q-154.58,0-309.17,0-258.06,0-516.12-.09c-2.08,0-4.16-1.19-6.25-1.83,2-.7,4-2,6-2q253.14-.2,506.28-.21,157.29-.06,314.59-.17c1.31,0,2.62,0,3.92-.08C1326.93,1098.48,1327.18,1099.94,1327.42,1101.4Z"/><path class="cls-21" d="M1327.42,1101.4c-.24-1.46-.49-2.92-.74-4.37a42.28,42.28,0,0,0,.9-6.27q.08-98.18.12-196.36c0-1.94,1.16-3.88,1.78-5.82.66,1.9,1.89,3.81,1.89,5.71q.15,98.18.13,196.36a43.24,43.24,0,0,0,.9,6.24l-.75,4.52c-.06,1.49-.19,3-.19,4.47q0,101.53,0,203c0,1.5.13,3,.19,4.48l-2.11,2.93c-.71-1-1.41-1.95-2.11-2.92.06-1.5.18-3,.18-4.48q0-101.54,0-203.06C1327.61,1104.38,1327.49,1102.89,1327.42,1101.4Z"/><path class="cls-10" d="M1059.18,39.74c1.31-.06,2.61-.17,3.92-.17h418.84c1.3,0,2.61.11,3.91.16-.66.6-1.24,1.54-2,1.72a17,17,0,0,1-3.91.11q-207.42,0-414.84-.07C1063.13,41.49,1061.16,40.35,1059.18,39.74Z"/><path class="cls-20" d="M2539.06,186.72h4.45v83.56l-4.45.23Z"/><path class="cls-20" d="M154.57,58.69c-13.06,0-26.13.05-39.2-.07-1.33,0-2.64-1-4-1.59,1.34-.53,2.68-1.52,4-1.53q38.24-.3,76.48-.31c2.36,0,4.72,1.08,7.09,1.67-2.39.72-4.77,2-7.17,2.06-12.42.21-24.84.1-37.27.1Z"/><path class="cls-10" d="M78.22,327.53q0-42.49,0-85c.93,1.72,2.65,3.43,2.66,5.16q.27,37.33,0,74.67C80.86,324.09,79.14,325.81,78.22,327.53Z"/><path class="cls-22" d="M2196.15,882.42c5.88,0,11.76-.12,17.63.1,1.19.05,2.34,1.37,3.5,2.1-1.09.62-2.15,1.74-3.26,1.79-11.4.45-22.81.74-34.21,1.07-1.15,0-2.44.34-3.4-.09a14.92,14.92,0,0,1-3.14-2.6c1.09-.79,2.17-2.23,3.28-2.26C2183.08,882.31,2189.62,882.42,2196.15,882.42Z"/><path class="cls-2" d="M413.36,1097.74c14.37-.89,28.74-1.19,43.11,1.17-14.32,2.53-28.67,2-43,1.27C413.42,1099.37,413.39,1098.55,413.36,1097.74Z"/><path class="cls-2" d="M87,1279.37l4.53.24v15.6l-4.53.29Z"/><path class="cls-23" d="M1875.87,38.26l1.35-.23Z"/><path class="cls-23" d="M2551.49,37.69l1,.91Z"/><path class="cls-10" d="M76.36,40.54l.67-.62A1.14,1.14,0,0,1,76.36,40.54Z"/><path class="cls-10" d="M79,881.45l-.75-1Z"/><path class="cls-24" d="M942.24,882l-1.36-.19Z"/><path class="cls-16" d="M2560.38,533.51l-.33-1a4.53,4.53,0,0,1,.45.63C2560.54,533.21,2560.43,533.38,2560.38,533.51Z"/><path class="cls-25" d="M2555.28,1095.44l-.79.89Z"/><path class="cls-3" d="M2538.61,1240.65l4.92-.25v28.65c-3.77,1.31-5-.19-4.94-3.67C2538.66,1257.38,2538.61,1249.39,2538.61,1240.65Z"/></g></g></svg>