<svg xmlns="http://www.w3.org/2000/svg" viewBox="0 0 18.07 17.61"><defs><style>.cls-1{fill:#efe5d1;fill-rule:evenodd;}</style></defs><g id="Layer_2" data-name="Layer 2"><g id="Layer_2-2" data-name="Layer 2"><path class="cls-1" d="M15.17,11.36c-.48-.13-1-.23-1.46-.4a1.08,1.08,0,0,0-1.1.16,12.73,12.73,0,0,1-1.44.75l.59.7a.54.54,0,0,1,0,.81,11.88,11.88,0,0,0-2.41,3.83,1.49,1.49,0,0,1-.18.3s-.08,0-.19.1c-.09-.17-.19-.34-.27-.52a12.36,12.36,0,0,0-2-3.3C6,13,6,13,6.7,12.15l.2-.26-.41-.24a6.12,6.12,0,0,1-1-.53A1.05,1.05,0,0,0,4.34,11a2.79,2.79,0,0,1-1.49.29c.14-.6.26-1.16.42-1.71a1,1,0,0,0-.1-.79,6.84,6.84,0,0,1-.5-1.3A1.84,1.84,0,0,0,1.8,6.33C1.24,6,.71,5.6.18,5.21.09,5.14.06,5,0,4.88c.12-.06.23-.17.35-.17.79,0,1.58,0,2.41,0,.06.33.12.62.16.92a6.26,6.26,0,0,0,3.17,4.63,3.37,3.37,0,0,0,.69.33c.91.35,1,.27,1.28-.71-.44-.24-.92-.44-1.33-.72a4.05,4.05,0,0,1,.4-7A2.71,2.71,0,0,0,8.5.87,5.25,5.25,0,0,1,9.08,0a12.08,12.08,0,0,1,.68,1.13,1.69,1.69,0,0,0,.93.87,4.09,4.09,0,0,1,2.4,4.59A4.08,4.08,0,0,1,10.35,9.7l-.21.07s0,0-.09.08a2.37,2.37,0,0,0,.08.42c.21.5.35.56.87.39a6,6,0,0,0,3.54-3,6.28,6.28,0,0,0,.71-2.54c0-.12,0-.23.06-.41.83,0,1.64,0,2.46,0,.1,0,.28.12.29.2a.4.4,0,0,1-.18.32c-.47.34-.95.69-1.45,1a1.78,1.78,0,0,0-.93,1.16A3.43,3.43,0,0,1,15,8.48a1.41,1.41,0,0,0-.1,1.32c.15.46.25.94.38,1.41ZM8.4,8.89a6.67,6.67,0,0,0,.33-1.68,1,1,0,0,0-.28-.94.75.75,0,0,1,.17-1.19.83.83,0,0,1,1.08.16.82.82,0,0,1,0,1.09,1.1,1.1,0,0,0-.29.51,5.47,5.47,0,0,0,.38,2,3.08,3.08,0,0,0,2.58-3.32,3.3,3.3,0,0,0-3.19-3,3.34,3.34,0,0,0-3.36,3C5.64,6.89,6.78,8.82,8.4,8.89Z"/></g></g></svg>