<svg xmlns="http://www.w3.org/2000/svg" viewBox="0 0 651.15 1942.74"><defs><style>.cls-1{fill:#ceb162;}</style></defs><g id="Layer_2" data-name="Layer 2"><g id="Layer_2-2" data-name="Layer 2"><path class="cls-1" d="M598.32,3V.36H40.21L.37,41.63,0,42V1890H2.64V43.08L17.05,28.15v1.52H41.12L67.33,3ZM40,27H18.13L41.33,3h22.3ZM648.51,49.47V1900l-13,13.44v0H611.46l-26.22,26.68H52.83v2.64H610.94l39.84-41.28.37-.38V49.47ZM609.82,1940.1H588.94l23.62-24H633ZM647.28,28.71h2.64V0H622.46V2.64h24.82ZM2.64,1914H0v28.71H27.46v-2.64H2.64Z"/></g></g></svg>