<svg xmlns="http://www.w3.org/2000/svg" viewBox="0 0 2614.64 1350.03"><defs><style>.cls-1{fill:#f3dcc2;}.cls-2{fill:#211a11;}.cls-3{fill:#201911;}.cls-4{fill:#fff;}.cls-5{fill:#96918c;}.cls-6{fill:#605b53;}.cls-7{fill:#78756e;}.cls-8{fill:#cbc8c5;}.cls-9{fill:#87837c;}.cls-10{fill:#9e9a95;}.cls-11{fill:#d0cecc;}.cls-12{fill:#b0ada9;}.cls-13{fill:#948f8a;}.cls-14{fill:#bcb9b6;}.cls-15{fill:#c2bfbb;}.cls-16{fill:#89857f;}.cls-17{fill:#c7c4c1;}.cls-18{fill:#d6d5d3;}.cls-19{fill:#6a655d;}.cls-20{fill:#f1f0ef;}.cls-21{fill:#e0dfdd;}.cls-22{fill:#9b9792;}.cls-23{fill:#a4a19d;}</style></defs><g id="Layer_2" data-name="Layer 2"><g id="Layer_1-2" data-name="Layer 1"><path class="cls-1" d="M2430.71,515.24c-1.52-51-3.09-107-3.21-112.67-.08-3.34-.1-13.67-.09-28.83,0-23.17.15-57.62.33-95.58,0-8.29.08-16.76.13-25.31.37-73.27,1.5-76.46-.43-168.84-.78-36.95-1-64.19-1-83.61L621.78.49c-13.67,0-61.52.16-102.51,7s-37.59.1-37.59.1-71.76,7-82,7A61.9,61.9,0,0,1,389,13L386,1.09l-12,0L345,1.2l-17.09,0-99.11.25c-6.49,2-6.21,1.76-13.39,4.23l-16.29,161,4-138.58c0-7.14-13.23-8.36-12.81-13.54-4.48,1.56-6.83,2.76-8,3.78.58-10.55-18.49-16.68-15-16.7L47.52,2c-16,0-28.93,11.18-28.9,24.88l.15,59.76C7,92,0,95.25,0,95.25s7.42-2.59,18.78-6.77L19,158.13c6,5.34,9.9,9,9.9,9L19.22,264,29.38,375.51l-9.73,54.17.17,66.9C26,508.87,28.67,518,29.46,525.22c4.76,5.63,9.27,11.2,12.69,15.9,12.86,17.7.08,35,.08,35l-22,302.68.19,73.27.15,60.53.1,38.22.13,51,.14,54.15L21,1209.8l6.09,15,45.14-28.31L51.82,1222.8l-1.8,4.78c-1.78,4.79-28.91,16.8-28.91,16.8l.07,26.28.09,38.23,0,11c0,13.7,13,24.78,29,24.73l35.13-.08L85.27,1274s-.68-80.62-.2-77.54c1.36,8.7,1.34,23.57,1,35.81-.3,11.28-.87,20.33-.87,20.33l4.35,31.05-3.41,60.93,23.65-3.86,8.88-32.06L129,1326.53l18,17.88,1900.4-.34,62.38-.16,23.06-.06,17-26.32.07,26.28,75.16-12.14,7.72,11.93,142.69-.37,99.08-13.39-20.51.06s10.22-13.17,20.51-.06l10.29,13.12,44.42-.12,56.49-.14c16,0,28.93-11.17,28.89-24.87l-.12-49.27-.08-28.67-.15-60.52c-.05-19.12-17.12-9.51-.18-70.08l-.18-70.08-30.63,47.86,30.59-66.5-.12-48-11.71-48.06S2613.31,555,2613.3,551.82l-.37-147.76c-11.51-6.82-33.53-11.21-55.73-13.44-21.48.18-42.68.15-60.39-.16-16.58,2.42,16.29,2.34-24,2.44-44.43.11-44.45-9.08-17.09-4.56,6.64,1.1,21.8,1.78,41.13,2.12,1.69-.25,3.88-.52,6.71-.82,12.59-1.34,33.2-1.09,53.68,1,19.15-.17,38.46-.51,55.69-1l-.08-32.16-17.24-57.29,17-41.46-.19-73.27,0-20.44-.22-84.68L2612,24.73c0-13.7-13-24.77-29-24.73l-77,.19-75.18.19c-1.45,34.26.55,61.32.29,112.3s.56,63.71.19,76.45.61,238.91.61,238.91m29,885.51c-5.29,3.6-8.08,6.92-9.22,9.94C2450.39,1321.28,2447.16,1319.16,2460.84,1313.55Zm-214.32,18.6c13.42,3,31.91,8.37,38.89,10.44C2262.28,1340.57,2251.07,1335.18,2246.52,1332.15ZM196.21,199.52l1.19-2C197,198.15,196.64,198.8,196.21,199.52Zm1.5-59.65,0,11.95C183.78,142.63,197.71,139.87,197.71,139.87ZM2506.32,1298.64l-5.85,4.29C2500,1292.81,2506.32,1298.64,2506.32,1298.64Zm-117.24,36.45-4.34-5.81C2394.87,1328.71,2389.08,1335.09,2389.08,1335.09ZM2527.31,57.48,2523,51.67C2533.1,51.1,2527.31,57.48,2527.31,57.48ZM2496,37.25l-8.07-10.82C2506.77,25.37,2496,37.25,2496,37.25ZM489.68,37.17l-8.07-10.82C500.46,25.3,489.68,37.17,489.68,37.17ZM2533.11,1322.92l-12,8.83C2520.07,1310.89,2533.11,1322.92,2533.11,1322.92Zm-51.65,13,4.91,14.11C2466.13,1344.85,2481.46,1335.92,2481.46,1335.92Z"/><g id="Layer_3" data-name="Layer 3"><path class="cls-2" d="M71.19,51.85V31.22h36.1l.79,1.4c-1.28.79-2.55,2.21-3.86,2.25-8.65.28-17.31.25-26,.33l-.82.73c0,38.32-.64,76.65.28,115,.54,22.49.44,45,.48,67.45q.66,443.55,1.12,887.09c.1,67.75.75,135.5,1.14,203.25.25.3.5.59.76.88,36.83.06,73.67.26,110.5.12,31.37-.12,62.74-.92,94.11-.92q678.59-.11,1357.16,0,152.76,0,305.52.06c60.52.1,121,.62,181.54,1,2.21,0,4.86-.69,4.89,3l.73.75,37.35.06.82-.82c-.2-2.34.8-3.07,3.12-3,12.39.11,24.79-.05,37.18.17,1.52,0,3,1.74,4.73,2.81l2.25-3,1.19-.25c10.46-.21,20.92-.59,31.38-.6q122.94-.06,245.89,0c11.28,0,22.56.21,33.83.32l1.27.45h24l.9,1.41c-1,.9-2.07,1.83-3.15,2.68-.2.16-.63,0-1,0l-53.73,1c-4.79.09-10-1.17-13.29,4h-12.78a7,7,0,0,0-2.37-1c-17.87,0-35.74.08-53.61.14l-45.18,0-114,0-91.39-.05h-117.9l-33.47,0c-1.31,0-2.62-.11-3.92-.11H1577.05c-1.47,0-2.94.12-4.41.18-1.3-.06-2.6-.18-3.91-.18H1335.84c-1.3,0-2.61.11-3.91.17-2-.06-3.91-.18-5.87-.18H1179.54c-12.08,0-24.16.1-36.25.15-1.3,0-2.61-.15-3.91-.15H759.1c-1.31,0-2.61.1-3.92.16-1.14-.06-2.28-.16-3.42-.16H521.82c-1.14,0-2.28.11-3.42.16h-112c-1.79-.06-3.59-.15-5.38-.15q-113.82,0-227.63,0-50,0-100.07.1c-.36-1.7-1.06-3.4-1-5.09.26-13.9,1-27.8,1-41.7q-.32-152.55-.92-305.11c-.13-32.58-.85-65.15-.91-97.73q-.2-123.66-.05-247.33c0-2-.1-4-.16-6,.06-20.48.16-41,.16-61.45,0-16.83-.14-33.65-.21-50.47.07-2.16.21-4.31.21-6.47q0-195.33,0-390.66c0-2-.07-4-.1-6Z"/><path class="cls-3" d="M2557.22,26.77c.68,1.77,1.94,3.54,2,5.33.17,13.31.09,26.62.09,39.94q0,52.92,0,105.84c0,2,.15,4,.23,6-.05.36-.11.71-.16,1.07-.12,2.46-.24,4.93-.36,7.37-4.78.77-4.82.77-4.82-4.19,0-25,1.5-50-.36-74.85-2-26.49-.63-52.91-1.7-79.33l-.83-.81-41.74,0q-139.24,0-278.49,0-176.82.07-353.64.22l-1.36.22c-2,0-3.93.07-5.9.07q-188.14,0-376.3,0-438.57.54-877.14,1.28-235.56.27-471.12,0h-5.18V29.16c1.21-.09,2.15-.23,3.1-.24,22-.35,44.08-.65,66.12-1.09,1.13,0,3.85,1.58,3.21-1.92H368.08c0,1.81,0,1.81,2.92.85,7.69,0,15.38.15,23.07.14q34.62-.07,69.23-.21l116.93.12c1.79,0,3.59.09,5.39.09q354,0,708.09,0c2.29,0,4.58,0,6.87-.06,1.31,0,2.61.07,3.92.07h804.24c1.47,0,2.94-.11,4.41-.16,1.63.06,3.26.16,4.9.16q216.39,0,432.8,0C2553,26.9,2555.1,26.81,2557.22,26.77Z"/><path class="cls-4" d="M71.19,614.87c.06,2,.16,4,.16,6q0,123.66.05,247.33c.06,32.58.78,65.15.91,97.73q.6,152.57.92,305.11c0,13.9-.7,27.8-1,41.7,0,1.69.67,3.39,1,5.09a6.76,6.76,0,0,1,0,.9c-1.62,0-3.8.62-3-2.51a7.78,7.78,0,0,0,0-2V614.82l.41.1Z"/><path class="cls-5" d="M2113.15,26.74c-1.47.05-2.94.16-4.41.16H1304.5c-1.31,0-2.61-.05-3.92-.07a1.64,1.64,0,0,1-.06-.93h812.56C2113.1,26.18,2113.12,26.46,2113.15,26.74Z"/><path class="cls-6" d="M1300.52,25.91a1.64,1.64,0,0,0,.06.93c-2.29,0-4.58.06-6.87.06q-354,0-708.09,0c-1.8,0-3.6-.06-5.39-.09a2.13,2.13,0,0,0,.08-.9Z"/><path class="cls-7" d="M1572.64,1317.9c1.47-.06,2.94-.18,4.41-.18h436.77c1.3,0,2.61.07,3.92.11a6.62,6.62,0,0,1,0,.89H1572.68C1572.67,1318.45,1572.66,1318.17,1572.64,1317.9Z"/><path class="cls-8" d="M2113.15,26.74c0-.28-.05-.56-.07-.83h444.1a4.13,4.13,0,0,0,0,.86c-2.12,0-4.25.13-6.37.13q-216.41,0-432.8,0C2116.41,26.9,2114.78,26.8,2113.15,26.74Z"/><path class="cls-9" d="M71.25,99.83c0,2,.1,4,.1,6q0,195.33,0,390.66c0,2.16-.14,4.31-.21,6.47a.64.64,0,0,1-.77-.11V99.9A6.4,6.4,0,0,0,71.25,99.83Z"/><path class="cls-10" d="M755.18,1317.88c1.31-.06,2.61-.16,3.92-.16h380.28c1.3,0,2.61.1,3.91.15,0,.28,0,.57,0,.85H755.21C755.2,1318.44,755.2,1318.16,755.18,1317.88Z"/><path class="cls-11" d="M73.32,1318.72a6.76,6.76,0,0,0,0-.9q50,0,100.07-.1,113.81,0,227.63,0c1.79,0,3.59.09,5.38.15,0,.28,0,.56,0,.84Z"/><path class="cls-9" d="M1572.64,1317.9c0,.27,0,.55,0,.82H1332l0-.82c1.3-.06,2.61-.17,3.91-.17h232.89C1570,1317.72,1571.34,1317.84,1572.64,1317.9Z"/><path class="cls-12" d="M755.18,1317.88c0,.28,0,.56,0,.84H518.41c0-.28,0-.56,0-.84,1.14-.05,2.28-.16,3.42-.16H751.76C752.9,1317.72,754,1317.82,755.18,1317.88Z"/><path class="cls-13" d="M1331.93,1317.9l0,.82H1143.31c0-.28,0-.57,0-.85,12.09,0,24.17-.14,36.25-.15h146.52C1328,1317.72,1330,1317.84,1331.93,1317.9Z"/><path class="cls-7" d="M2051.21,1317.85h117.9a6.47,6.47,0,0,0,0,.88h-117.9A8.43,8.43,0,0,1,2051.21,1317.85Z"/><path class="cls-5" d="M580.31,25.91a2.13,2.13,0,0,1-.08.9L463.3,26.69a1.71,1.71,0,0,1,.09-.78Z"/><path class="cls-10" d="M2260.5,1317.89l114,0a4.91,4.91,0,0,0,0,.86h-114C2260.47,1318.44,2260.48,1318.16,2260.5,1317.89Z"/><path class="cls-14" d="M518.4,1317.88c0,.28,0,.56,0,.84h-112c0-.28,0-.56,0-.84Z"/><path class="cls-15" d="M70.37,502.84a.64.64,0,0,0,.77.11c.07,16.82.2,33.64.21,50.47,0,20.48-.1,41-.16,61.45l-.41,0-.41-.1Z"/><path class="cls-8" d="M463.39,25.91a1.71,1.71,0,0,0-.09.78q-34.62.11-69.23.21c-7.69,0-15.38-.09-23.07-.14a6.09,6.09,0,0,0,0-.85Z"/><path class="cls-16" d="M2260.5,1317.89c0,.27,0,.55,0,.83h-91.38a6.47,6.47,0,0,1,0-.88Z"/><path class="cls-17" d="M2585.68,314.87c-1,6.24-2,12.48-3,18.73-.29,1.9-.46,3.81-.69,5.71l-2-.28c.91-10.1,1.76-20.21,2.83-30.28.08-.73,1.83-1.26,2.81-1.88Z"/><path class="cls-18" d="M2419.65,1317.88c17.87-.06,35.74-.14,53.61-.14a7,7,0,0,1,2.37,1h-56C2419.63,1318.44,2419.64,1318.16,2419.65,1317.88Z"/><path class="cls-15" d="M71.25,99.83a6.4,6.4,0,0,1-.88.07v-48a1.22,1.22,0,0,1,.82,0Z"/><path class="cls-15" d="M2419.65,1317.88c0,.28,0,.56,0,.84h-45.2a4.91,4.91,0,0,1,0-.86Z"/><path class="cls-19" d="M2051.21,1317.85a8.43,8.43,0,0,0,0,.87h-33.41a6.62,6.62,0,0,0,0-.89Z"/><path class="cls-4" d="M371,25.91a6.09,6.09,0,0,1,0,.85c-2.88,1-2.88,1-2.92-.85Z"/><path class="cls-2" d="M2560.08,528.89c0,2.54.1,5.07.1,7.6,0,11.5-.06,23,0,34.49q.46,76.88,1,153.75.18,29.24.25,58.46.33,148.15.56,296.31c0,17.52-1.18,35-1.86,52.56-.27,7.07-1.44,14.21-.84,21.2,4,46.79.86,93.65,1.84,140.46,0,1.8,0,3.6,0,5.73l-5.91.34v-5.62c0-23,.12-46-.11-69-.06-6.26-1.69-12.5-1.75-18.77-.1-10.75.49-21.5.73-32.25a38.92,38.92,0,0,0-.37-4.43c-.16-.33-.32-.67-.47-1q0-14,0-28l.51-1.15v-24.79l-.51-1.15c2.83-30.91,1.84-61.91,1.91-92.87.07-33.13.12-66.27,0-99.4q-.43-97.8-1.11-195.6c0-1-.19-2-.28-3-.17-.37-.35-.74-.52-1.1-.33-32.59-.9-65.18-.95-97.77q-.27-157.9-.2-315.82c0-31.64.1-63.29.15-94.94,0-1.62,0-3.23,0-5.1h5.9v5.43c0,40.48-.12,81,.07,121.43q.42,95.36,1.2,190.7a18.94,18.94,0,0,0,.19,2Z"/><path class="cls-2" d="M2543.16,265.52c-3.08.78-4.71.47-4.69-3.08.11-26.28.08-52.56.11-78.84a6.54,6.54,0,0,1,.39-1.35l4.19-.45Z"/><path class="cls-2" d="M133.4,50.62q30.63-.07,61.25-.13a15.31,15.31,0,0,1,3.89.41,2.16,2.16,0,0,1,1.4,1.49c0,.5-.81,1.3-1.4,1.46a14.88,14.88,0,0,1-3.88.46q-30.63,0-61.26-.12l-1.24.57c-6.81-.38-13.89,1.67-20.37-1.49l0-2.08,20.37-.39Z"/><path class="cls-14" d="M2574.22,387.79q1.32-15.71,2.65-31.39l1.6.14C2579.59,367.17,2577.18,377.5,2574.22,387.79Z"/><path class="cls-16" d="M2534.68,1309.6l-1.27-.45Z"/><path class="cls-20" d="M2135.67,1313.48l-.73-.75Z"/><path class="cls-20" d="M2173.84,1312.72l-.82.82Z"/><path class="cls-12" d="M2553.29,1113.7l.51,1.15Z"/><path class="cls-14" d="M2553.27,721.78c.17.36.35.73.52,1.1C2553.62,722.51,2553.44,722.14,2553.27,721.78Z"/><path class="cls-8" d="M2559.35,184.92c.05-.36.11-.71.16-1.07C2559.46,184.21,2559.4,184.56,2559.35,184.92Z"/><path class="cls-13" d="M132.16,54.76l1.24-.57Z"/><path class="cls-13" d="M133.4,50.62l-1.19.18Z"/><path class="cls-18" d="M77.44,35.93l.82-.73Z"/><path class="cls-21" d="M2551.28,33.11l.83.81Z"/><path class="cls-22" d="M1876.05,33.53l1.36-.22Z"/><path class="cls-11" d="M2553.25,1168.75c.15.33.31.67.47,1C2553.56,1169.42,2553.4,1169.08,2553.25,1168.75Z"/><path class="cls-17" d="M81.22,1309.55l-.76-.88Z"/><path class="cls-16" d="M2222.31,1309.43l-1.19.25Z"/><path class="cls-23" d="M2560.08,528.89l-.45-1.2Z"/><path class="cls-12" d="M2553.8,1139.64l-.51,1.15Z"/></g></g></g></svg>